<svg width="700" height="700" viewBox="0 0 700 700" fill="none" xmlns="http://www.w3.org/2000/svg">
<rect opacity="0.01" width="700" height="700" rx="70" fill="#D9D9D9"/>
<rect x="25" y="50" width="650" height="600" rx="70" fill="#041026" stroke="white"/>
<path d="M130.936 370.704C130.936 372.984 130.176 374.998 128.656 376.746C127.136 378.494 125.122 379.368 122.614 379.368C120.03 379.368 117.978 378.494 116.458 376.746C114.938 374.998 114.178 372.984 114.178 370.704C114.178 368.348 114.938 366.296 116.458 364.548C117.978 362.8 120.03 361.926 122.614 361.926C125.122 361.926 127.136 362.8 128.656 364.548C130.176 366.296 130.936 368.348 130.936 370.704ZM244.936 370.704C244.936 372.984 244.176 374.998 242.656 376.746C241.136 378.494 239.122 379.368 236.614 379.368C234.03 379.368 231.978 378.494 230.458 376.746C228.938 374.998 228.178 372.984 228.178 370.704C228.178 368.348 228.938 366.296 230.458 364.548C231.978 362.8 234.03 361.926 236.614 361.926C239.122 361.926 241.136 362.8 242.656 364.548C244.176 366.296 244.936 368.348 244.936 370.704ZM357.112 341.406C357.112 343.382 356.504 345.092 355.288 346.536C354.148 347.98 352.628 348.702 350.728 348.702C348.752 348.702 347.156 347.98 345.94 346.536C344.724 345.092 344.116 343.382 344.116 341.406C344.116 339.43 344.724 337.682 345.94 336.162C347.156 334.642 348.752 333.882 350.728 333.882C352.628 333.882 354.148 334.642 355.288 336.162C356.504 337.682 357.112 339.43 357.112 341.406ZM327.244 342.66C327.244 330.804 329.258 321.722 333.286 315.414C337.39 309.03 343.128 305.838 350.5 305.838C357.948 305.838 363.686 309.03 367.714 315.414C371.742 321.722 373.756 330.804 373.756 342.66C373.756 354.516 371.742 363.636 367.714 370.02C363.686 376.328 357.948 379.482 350.5 379.482C343.128 379.482 337.39 376.328 333.286 370.02C329.258 363.636 327.244 354.516 327.244 342.66ZM364.18 342.66C364.18 338.784 363.952 335.136 363.496 331.716C363.04 328.22 362.28 325.18 361.216 322.596C360.152 320.012 358.746 317.96 356.998 316.44C355.25 314.92 353.084 314.16 350.5 314.16C347.916 314.16 345.75 314.92 344.002 316.44C342.254 317.96 340.848 320.012 339.784 322.596C338.72 325.18 337.96 328.22 337.504 331.716C337.048 335.136 336.82 338.784 336.82 342.66C336.82 346.536 337.048 350.222 337.504 353.718C337.96 357.138 338.72 360.14 339.784 362.724C340.848 365.308 342.254 367.36 344.002 368.88C345.75 370.4 347.916 371.16 350.5 371.16C353.084 371.16 355.25 370.4 356.998 368.88C358.746 367.36 360.152 365.308 361.216 362.724C362.28 360.14 363.04 357.138 363.496 353.718C363.952 350.222 364.18 346.536 364.18 342.66ZM472.936 370.704C472.936 372.984 472.176 374.998 470.656 376.746C469.136 378.494 467.122 379.368 464.614 379.368C462.03 379.368 459.978 378.494 458.458 376.746C456.938 374.998 456.178 372.984 456.178 370.704C456.178 368.348 456.938 366.296 458.458 364.548C459.978 362.8 462.03 361.926 464.614 361.926C467.122 361.926 469.136 362.8 470.656 364.548C472.176 366.296 472.936 368.348 472.936 370.704ZM586.936 370.704C586.936 372.984 586.176 374.998 584.656 376.746C583.136 378.494 581.122 379.368 578.614 379.368C576.03 379.368 573.978 378.494 572.458 376.746C570.938 374.998 570.178 372.984 570.178 370.704C570.178 368.348 570.938 366.296 572.458 364.548C573.978 362.8 576.03 361.926 578.614 361.926C581.122 361.926 583.136 362.8 584.656 364.548C586.176 366.296 586.936 368.348 586.936 370.704Z" fill="white"/>
<path d="M123.991 207.727C121.749 207.727 119.825 206.924 118.219 205.318C116.613 203.712 115.81 201.788 115.81 199.545C115.81 197.303 116.613 195.379 118.219 193.773C119.825 192.167 121.749 191.364 123.991 191.364C126.234 191.364 128.158 192.167 129.764 193.773C131.37 195.379 132.173 197.303 132.173 199.545C132.173 201.03 131.794 202.394 131.037 203.636C130.31 204.879 129.325 205.879 128.082 206.636C126.87 207.364 125.507 207.727 123.991 207.727ZM237.001 207.727C234.759 207.727 232.835 206.924 231.229 205.318C229.623 203.712 228.82 201.788 228.82 199.545C228.82 197.303 229.623 195.379 231.229 193.773C232.835 192.167 234.759 191.364 237.001 191.364C239.244 191.364 241.168 192.167 242.774 193.773C244.38 195.379 245.183 197.303 245.183 199.545C245.183 201.03 244.804 202.394 244.047 203.636C243.32 204.879 242.335 205.879 241.092 206.636C239.88 207.364 238.517 207.727 237.001 207.727ZM350.011 207.727C347.769 207.727 345.845 206.924 344.239 205.318C342.633 203.712 341.83 201.788 341.83 199.545C341.83 197.303 342.633 195.379 344.239 193.773C345.845 192.167 347.769 191.364 350.011 191.364C352.254 191.364 354.178 192.167 355.784 193.773C357.39 195.379 358.193 197.303 358.193 199.545C358.193 201.03 357.814 202.394 357.057 203.636C356.33 204.879 355.345 205.879 354.102 206.636C352.89 207.364 351.527 207.727 350.011 207.727ZM463.021 207.727C460.779 207.727 458.855 206.924 457.249 205.318C455.643 203.712 454.84 201.788 454.84 199.545C454.84 197.303 455.643 195.379 457.249 193.773C458.855 192.167 460.779 191.364 463.021 191.364C465.264 191.364 467.188 192.167 468.794 193.773C470.4 195.379 471.203 197.303 471.203 199.545C471.203 201.03 470.824 202.394 470.067 203.636C469.34 204.879 468.355 205.879 467.112 206.636C465.9 207.364 464.537 207.727 463.021 207.727ZM576.031 207.727C573.789 207.727 571.865 206.924 570.259 205.318C568.653 203.712 567.85 201.788 567.85 199.545C567.85 197.303 568.653 195.379 570.259 193.773C571.865 192.167 573.789 191.364 576.031 191.364C578.274 191.364 580.198 192.167 581.804 193.773C583.41 195.379 584.213 197.303 584.213 199.545C584.213 201.03 583.834 202.394 583.077 203.636C582.35 204.879 581.365 205.879 580.122 206.636C578.91 207.364 577.547 207.727 576.031 207.727Z" fill="white"/>
<path d="M123.991 529.727C121.749 529.727 119.825 528.924 118.219 527.318C116.613 525.712 115.81 523.788 115.81 521.545C115.81 519.303 116.613 517.379 118.219 515.773C119.825 514.167 121.749 513.364 123.991 513.364C126.234 513.364 128.158 514.167 129.764 515.773C131.37 517.379 132.173 519.303 132.173 521.545C132.173 523.03 131.794 524.394 131.037 525.636C130.31 526.879 129.325 527.879 128.082 528.636C126.87 529.364 125.507 529.727 123.991 529.727ZM237.001 529.727C234.759 529.727 232.835 528.924 231.229 527.318C229.623 525.712 228.82 523.788 228.82 521.545C228.82 519.303 229.623 517.379 231.229 515.773C232.835 514.167 234.759 513.364 237.001 513.364C239.244 513.364 241.168 514.167 242.774 515.773C244.38 517.379 245.183 519.303 245.183 521.545C245.183 523.03 244.804 524.394 244.047 525.636C243.32 526.879 242.335 527.879 241.092 528.636C239.88 529.364 238.517 529.727 237.001 529.727ZM350.011 529.727C347.769 529.727 345.845 528.924 344.239 527.318C342.633 525.712 341.83 523.788 341.83 521.545C341.83 519.303 342.633 517.379 344.239 515.773C345.845 514.167 347.769 513.364 350.011 513.364C352.254 513.364 354.178 514.167 355.784 515.773C357.39 517.379 358.193 519.303 358.193 521.545C358.193 523.03 357.814 524.394 357.057 525.636C356.33 526.879 355.345 527.879 354.102 528.636C352.89 529.364 351.527 529.727 350.011 529.727ZM463.021 529.727C460.779 529.727 458.855 528.924 457.249 527.318C455.643 525.712 454.84 523.788 454.84 521.545C454.84 519.303 455.643 517.379 457.249 515.773C458.855 514.167 460.779 513.364 463.021 513.364C465.264 513.364 467.188 514.167 468.794 515.773C470.4 517.379 471.203 519.303 471.203 521.545C471.203 523.03 470.824 524.394 470.067 525.636C469.34 526.879 468.355 527.879 467.112 528.636C465.9 529.364 464.537 529.727 463.021 529.727ZM576.031 529.727C573.789 529.727 571.865 528.924 570.259 527.318C568.653 525.712 567.85 523.788 567.85 521.545C567.85 519.303 568.653 517.379 570.259 515.773C571.865 514.167 573.789 513.364 576.031 513.364C578.274 513.364 580.198 514.167 581.804 515.773C583.41 517.379 584.213 519.303 584.213 521.545C584.213 523.03 583.834 524.394 583.077 525.636C582.35 526.879 581.365 527.879 580.122 528.636C578.91 529.364 577.547 529.727 576.031 529.727Z" fill="white"/>
</svg>
