<svg width="700" height="570" viewBox="0 0 700 570" fill="none" xmlns="http://www.w3.org/2000/svg">
<rect opacity="0.01" width="700" height="570" rx="70" fill="#D9D9D9"/>
<rect x="25" y="28" width="650" height="520" rx="70" fill="#02A04F" fill-opacity="0.6" stroke="white"/>
<path d="M123.991 306.727C121.749 306.727 119.825 305.924 118.219 304.318C116.613 302.712 115.81 300.788 115.81 298.545C115.81 296.303 116.613 294.379 118.219 292.773C119.825 291.167 121.749 290.364 123.991 290.364C126.234 290.364 128.158 291.167 129.764 292.773C131.37 294.379 132.173 296.303 132.173 298.545C132.173 300.03 131.794 301.394 131.037 302.636C130.31 303.879 129.325 304.879 128.082 305.636C126.87 306.364 125.507 306.727 123.991 306.727ZM237.001 306.727C234.759 306.727 232.835 305.924 231.229 304.318C229.623 302.712 228.82 300.788 228.82 298.545C228.82 296.303 229.623 294.379 231.229 292.773C232.835 291.167 234.759 290.364 237.001 290.364C239.244 290.364 241.168 291.167 242.774 292.773C244.38 294.379 245.183 296.303 245.183 298.545C245.183 300.03 244.804 301.394 244.047 302.636C243.32 303.879 242.335 304.879 241.092 305.636C239.88 306.364 238.517 306.727 237.001 306.727ZM350.011 306.727C347.769 306.727 345.845 305.924 344.239 304.318C342.633 302.712 341.83 300.788 341.83 298.545C341.83 296.303 342.633 294.379 344.239 292.773C345.845 291.167 347.769 290.364 350.011 290.364C352.254 290.364 354.178 291.167 355.784 292.773C357.39 294.379 358.193 296.303 358.193 298.545C358.193 300.03 357.814 301.394 357.057 302.636C356.33 303.879 355.345 304.879 354.102 305.636C352.89 306.364 351.527 306.727 350.011 306.727ZM463.021 306.727C460.779 306.727 458.855 305.924 457.249 304.318C455.643 302.712 454.84 300.788 454.84 298.545C454.84 296.303 455.643 294.379 457.249 292.773C458.855 291.167 460.779 290.364 463.021 290.364C465.264 290.364 467.188 291.167 468.794 292.773C470.4 294.379 471.203 296.303 471.203 298.545C471.203 300.03 470.824 301.394 470.067 302.636C469.34 303.879 468.355 304.879 467.112 305.636C465.9 306.364 464.537 306.727 463.021 306.727ZM576.031 306.727C573.789 306.727 571.865 305.924 570.259 304.318C568.653 302.712 567.85 300.788 567.85 298.545C567.85 296.303 568.653 294.379 570.259 292.773C571.865 291.167 573.789 290.364 576.031 290.364C578.274 290.364 580.198 291.167 581.804 292.773C583.41 294.379 584.213 296.303 584.213 298.545C584.213 300.03 583.834 301.394 583.077 302.636C582.35 303.879 581.365 304.879 580.122 305.636C578.91 306.364 577.547 306.727 576.031 306.727Z" fill="white"/>
<path d="M239.456 155.727C237.214 155.727 235.29 154.924 233.684 153.318C232.078 151.712 231.275 149.788 231.275 147.545C231.275 145.303 232.078 143.379 233.684 141.773C235.29 140.167 237.214 139.364 239.456 139.364C241.699 139.364 243.623 140.167 245.229 141.773C246.835 143.379 247.638 145.303 247.638 147.545C247.638 149.03 247.259 150.394 246.502 151.636C245.775 152.879 244.79 153.879 243.547 154.636C242.335 155.364 240.972 155.727 239.456 155.727ZM352.466 155.727C350.224 155.727 348.3 154.924 346.694 153.318C345.088 151.712 344.285 149.788 344.285 147.545C344.285 145.303 345.088 143.379 346.694 141.773C348.3 140.167 350.224 139.364 352.466 139.364C354.709 139.364 356.633 140.167 358.239 141.773C359.845 143.379 360.648 145.303 360.648 147.545C360.648 149.03 360.269 150.394 359.512 151.636C358.785 152.879 357.8 153.879 356.557 154.636C355.345 155.364 353.982 155.727 352.466 155.727ZM465.476 155.727C463.234 155.727 461.31 154.924 459.704 153.318C458.098 151.712 457.295 149.788 457.295 147.545C457.295 145.303 458.098 143.379 459.704 141.773C461.31 140.167 463.234 139.364 465.476 139.364C467.719 139.364 469.643 140.167 471.249 141.773C472.855 143.379 473.658 145.303 473.658 147.545C473.658 149.03 473.279 150.394 472.522 151.636C471.795 152.879 470.81 153.879 469.567 154.636C468.355 155.364 466.992 155.727 465.476 155.727ZM578.486 155.727C576.244 155.727 574.32 154.924 572.714 153.318C571.108 151.712 570.305 149.788 570.305 147.545C570.305 145.303 571.108 143.379 572.714 141.773C574.32 140.167 576.244 139.364 578.486 139.364C580.729 139.364 582.653 140.167 584.259 141.773C585.865 143.379 586.668 145.303 586.668 147.545C586.668 149.03 586.289 150.394 585.532 151.636C584.805 152.879 583.82 153.879 582.577 154.636C581.365 155.364 580.002 155.727 578.486 155.727Z" fill="white"/>
<path d="M119.991 174.727C116.688 174.727 113.582 174.106 110.673 172.864C107.779 171.621 105.226 169.902 103.014 167.705C100.817 165.492 99.09 162.939 97.8324 160.045C96.59 157.152 95.9763 154.045 95.9915 150.727C96.0066 147.409 96.6354 144.303 97.8778 141.409C99.1354 138.515 100.863 135.97 103.06 133.773C105.257 131.561 107.802 129.833 110.696 128.591C113.59 127.348 116.688 126.727 119.991 126.727C123.31 126.727 126.416 127.348 129.31 128.591C132.219 129.833 134.764 131.561 136.946 133.773C139.143 135.97 140.863 138.515 142.105 141.409C143.348 144.303 143.976 147.409 143.991 150.727C144.007 154.045 143.393 157.152 142.151 160.045C140.908 162.939 139.188 165.492 136.991 167.705C134.795 169.902 132.241 171.621 129.332 172.864C126.423 174.106 123.31 174.727 119.991 174.727Z" fill="#800000"/>
<path d="M125.456 456.727C123.214 456.727 121.29 455.924 119.684 454.318C118.078 452.712 117.275 450.788 117.275 448.545C117.275 446.303 118.078 444.379 119.684 442.773C121.29 441.167 123.214 440.364 125.456 440.364C127.699 440.364 129.623 441.167 131.229 442.773C132.835 444.379 133.638 446.303 133.638 448.545C133.638 450.03 133.259 451.394 132.502 452.636C131.775 453.879 130.79 454.879 129.547 455.636C128.335 456.364 126.972 456.727 125.456 456.727ZM238.466 456.727C236.224 456.727 234.3 455.924 232.694 454.318C231.088 452.712 230.285 450.788 230.285 448.545C230.285 446.303 231.088 444.379 232.694 442.773C234.3 441.167 236.224 440.364 238.466 440.364C240.709 440.364 242.633 441.167 244.239 442.773C245.845 444.379 246.648 446.303 246.648 448.545C246.648 450.03 246.269 451.394 245.512 452.636C244.785 453.879 243.8 454.879 242.557 455.636C241.345 456.364 239.982 456.727 238.466 456.727ZM351.476 456.727C349.234 456.727 347.31 455.924 345.704 454.318C344.098 452.712 343.295 450.788 343.295 448.545C343.295 446.303 344.098 444.379 345.704 442.773C347.31 441.167 349.234 440.364 351.476 440.364C353.719 440.364 355.643 441.167 357.249 442.773C358.855 444.379 359.658 446.303 359.658 448.545C359.658 450.03 359.279 451.394 358.522 452.636C357.795 453.879 356.81 454.879 355.567 455.636C354.355 456.364 352.992 456.727 351.476 456.727ZM464.486 456.727C462.244 456.727 460.32 455.924 458.714 454.318C457.108 452.712 456.305 450.788 456.305 448.545C456.305 446.303 457.108 444.379 458.714 442.773C460.32 441.167 462.244 440.364 464.486 440.364C466.729 440.364 468.653 441.167 470.259 442.773C471.865 444.379 472.668 446.303 472.668 448.545C472.668 450.03 472.289 451.394 471.532 452.636C470.805 453.879 469.82 454.879 468.577 455.636C467.365 456.364 466.002 456.727 464.486 456.727Z" fill="white"/>
<path d="M580.014 474.176C576.516 474.176 573.23 473.515 570.158 472.192C567.129 470.912 564.441 469.12 562.094 466.816C559.79 464.469 557.977 461.76 556.654 458.688C555.332 455.616 554.67 452.331 554.67 448.832C554.67 445.333 555.332 442.048 556.654 438.976C557.977 435.904 559.79 433.216 562.094 430.912C564.441 428.565 567.129 426.752 570.158 425.472C573.23 424.149 576.516 423.488 580.014 423.488C583.513 423.488 586.798 424.149 589.87 425.472C592.942 426.752 595.63 428.565 597.934 430.912C600.281 433.216 602.094 435.904 603.374 438.976C604.697 442.048 605.358 445.333 605.358 448.832C605.358 452.331 604.697 455.616 603.374 458.688C602.094 461.76 600.281 464.469 597.934 466.816C595.63 469.12 592.942 470.912 589.87 472.192C586.798 473.515 583.513 474.176 580.014 474.176ZM580.014 469.76C582.916 469.76 585.625 469.227 588.142 468.16C590.66 467.051 592.878 465.536 594.798 463.616C596.718 461.696 598.212 459.477 599.278 456.96C600.388 454.443 600.942 451.733 600.942 448.832C600.942 445.931 600.388 443.221 599.278 440.704C598.212 438.187 596.718 435.968 594.798 434.048C592.878 432.128 590.66 430.635 588.142 429.568C585.625 428.459 582.916 427.904 580.014 427.904C577.113 427.904 574.404 428.459 571.886 429.568C569.369 430.635 567.15 432.128 565.23 434.048C563.31 435.968 561.796 438.187 560.686 440.704C559.62 443.221 559.086 445.931 559.086 448.832C559.086 451.733 559.62 454.443 560.686 456.96C561.796 459.477 563.31 461.696 565.23 463.616C567.15 465.536 569.369 467.051 571.886 468.16C574.404 469.227 577.113 469.76 580.014 469.76ZM580.014 466.688C577.54 466.688 575.214 466.24 573.038 465.344C570.905 464.405 569.006 463.125 567.342 461.504C565.721 459.84 564.441 457.941 563.502 455.808C562.606 453.632 562.158 451.307 562.158 448.832C562.158 446.357 562.606 444.053 563.502 441.92C564.441 439.744 565.721 437.845 567.342 436.224C569.006 434.56 570.905 433.28 573.038 432.384C575.214 431.445 577.54 430.976 580.014 430.976C582.489 430.976 584.814 431.445 586.99 432.384C589.166 433.28 591.065 434.56 592.686 436.224C594.35 437.845 595.63 439.744 596.526 441.92C597.465 444.053 597.934 446.357 597.934 448.832C597.934 451.307 597.465 453.632 596.526 455.808C595.63 457.941 594.35 459.84 592.686 461.504C591.065 463.125 589.166 464.405 586.99 465.344C584.814 466.24 582.489 466.688 580.014 466.688Z" fill="#000080"/>
</svg>
